<svg width="74" height="68" viewBox="0 0 74 68" fill="none" xmlns="http://www.w3.org/2000/svg">
<rect width="74" height="68" rx="34" fill="#D7DAD1"/>
<path fill-rule="evenodd" clip-rule="evenodd" d="M48.1004 27.2C48.1004 32.8333 43.1308 37.4 37.0005 37.4C30.8701 37.4 25.9005 32.8333 25.9005 27.2C25.9005 21.5667 30.8701 17 37.0005 17C43.1308 17 48.1004 21.5667 48.1004 27.2ZM44.4005 27.2C44.4005 30.9555 41.0874 34 37.0005 34C32.9135 34 29.6005 30.9555 29.6005 27.2C29.6005 23.4445 32.9135 20.4 37.0005 20.4C41.0874 20.4 44.4005 23.4445 44.4005 27.2Z" fill="black"/>
<path d="M37.0005 42.5C25.0228 42.5 14.8176 49.0083 10.9302 58.1265C11.8772 58.9906 12.8748 59.808 13.9185 60.5745C16.8133 52.2031 25.8944 45.9 37.0005 45.9C48.1065 45.9 57.1876 52.2031 60.0824 60.5745C61.1261 59.808 62.1237 58.9906 63.0707 58.1265C59.1833 49.0083 48.9781 42.5 37.0005 42.5Z" fill="black"/>
</svg>
