<svg width="27" height="26" viewBox="0 0 27 26" fill="none" xmlns="http://www.w3.org/2000/svg">
<rect width="27" height="26" rx="13" fill="#8E8E8E"/>
<path fill-rule="evenodd" clip-rule="evenodd" d="M17.5502 10.4C17.5502 12.5539 15.7369 14.3 13.5002 14.3C11.2634 14.3 9.45016 12.5539 9.45016 10.4C9.45016 8.24609 11.2634 6.5 13.5002 6.5C15.7369 6.5 17.5502 8.24609 17.5502 10.4ZM16.2002 10.4C16.2002 11.8359 14.9913 13 13.5002 13C12.009 13 10.8002 11.8359 10.8002 10.4C10.8002 8.96406 12.009 7.8 13.5002 7.8C14.9913 7.8 16.2002 8.96406 16.2002 10.4Z" fill="#A4A4A4"/>
<path d="M13.5002 16.25C9.12996 16.25 5.40642 18.7385 3.98804 22.2248C4.33357 22.5552 4.69756 22.8678 5.07838 23.1608C6.13458 19.96 9.44795 17.55 13.5002 17.55C17.5524 17.55 20.8658 19.96 21.922 23.1608C22.3028 22.8678 22.6668 22.5552 23.0123 22.2248C21.5939 18.7385 17.8704 16.25 13.5002 16.25Z" fill="#A4A4A4"/>
</svg>
